<svg width="325" height="326" viewBox="0 0 325 326" fill="none" xmlns="http://www.w3.org/2000/svg">
<path fill-rule="evenodd" clip-rule="evenodd" d="M162.377 0.723633C197.345 0.723633 232.493 18.9217 269.424 55.853C343.465 129.894 342.751 196.62 269.424 269.948C232.493 306.344 197.345 325.077 162.377 325.077C127.408 325.077 92.2606 306.879 55.3293 269.948C18.398 233.016 0.199951 197.869 0.199951 162.9C0.199951 127.218 18.9332 92.249 55.3293 55.853C91.7254 18.9217 127.408 0.723633 162.377 0.723633ZM162.377 251.214C181.823 251.214 200.735 241.402 220.717 221.241C261.038 181.634 261.038 144.702 220.717 104.559C180.575 64.2383 144.179 64.2383 104.036 104.559C63.7147 144.167 63.7147 181.098 104.036 221.241C124.196 241.402 143.643 251.214 162.377 251.214Z" fill="url(#paint0_linear_17_10732)"/>
<defs>
<linearGradient id="paint0_linear_17_10732" x1="-103507" y1="186493" x2="-46537.5" y2="246238" gradientUnits="userSpaceOnUse">
<stop stop-color="#0073FF"/>
<stop offset="1" stop-color="#FF00FF"/>
</linearGradient>
</defs>
</svg>
