<svg width="751" height="220" viewBox="0 0 751 220" fill="none" xmlns="http://www.w3.org/2000/svg">
<path fill-rule="evenodd" clip-rule="evenodd" d="M129.9 36.6003C131.1 41.8003 131.7 47.0002 131.7 52.3002C131.5 70.7002 125.533 84.5669 113.8 93.9003C102.067 103.234 85.0333 107.9 62.7 107.9H46.4C40.6 108.4 36.3 113.5 36.9 119.2V137C21.1 128.4 8.59999 115.1 0.999995 98.8002C0.999995 98.7002 0.999995 9.80023 0.999995 9.80023C0.999995 9.73357 1.03333 9.63358 1.1 9.50025C1.5 4.30025 6.19999 0.500247 11.4 1.00025H65.9C72.2333 0.93358 78.5333 1.20023 84.8 1.80023C90.1 2.40023 95.4 3.50026 100.5 5.20026C105.2 6.60026 109.7 8.80025 113.8 11.6003C117.8 14.6003 121.2 18.3002 123.9 22.5002C126.6 26.9002 128.6 31.6003 129.9 36.6003ZM91.9 68.0002C94.3 63.7002 95.5 58.8002 95.4 53.9002C95.7 49.2002 94.7 44.4003 92.6 40.2003C90.8 37.0003 88 34.5002 84.6 33.0002C81 31.3002 77 30.3003 73 30.1003C68.4667 29.8336 63.6667 29.7003 58.6 29.7003H42.9C42.5667 29.6336 42.2333 29.6336 41.9 29.7003C38.9 29.9003 36.6 32.5002 36.8 35.5002V72.0002C36.8 76.5002 39.1 79.5002 42.9 79.5002H58.6C63.1333 79.5669 67.6333 79.3003 72.1 78.7003C76.1 78.4003 80.1 77.4003 83.8 75.6003C87.2 73.9003 90 71.3002 91.9 68.0002ZM36.9 162.6C36.9 162.6 37.7 169.5 31.1 169.5H6.49999C6.43333 169.5 6.33332 169.5 6.19999 169.5C2.89999 169 0.599995 166 0.999995 162.6V119.8C11.2 129.8 23.5 137.5 36.9 142.4V162.6ZM380.4 53.9002C379.7 56.2002 364 99.8002 352.1 132.5C340.4 156.1 316.9 178 296.7 184C297.767 182.8 298.7 181.534 299.5 180.2C301.5 177 302.9 173.4 303.6 169.7C303 165.9 301.8 162.2 300.2 158.8C289.7 130.7 262.9 57.3003 262 55.2003C261.1 53.1003 261.1 47.6003 268.1 47.6003H287.6C292.3 47.7003 296.3 51.0002 297.2 55.5002C298.9 60.3002 320.7 122.3 320.7 122.3L345.4 54.3002C346.4 50.2002 350.1 47.4003 354.3 47.7003H375.6C381.1 47.7003 381.1 50.5002 380.4 53.9002ZM342.1 160.6L338.9 169.3C336.233 176.634 333.367 183.3 330.3 189.3C327.5 195 324 200.3 319.9 205C316.2 209.4 311.7 212.9 306.6 215.5C301.1 218 295 219.3 288.9 219.1C283.7 219.2 278.6 218.6 273.5 217.5C271.9 217.1 268.9 216.6 268.9 210.4V194C268.9 190.2 273.1 189.9 275.4 190.2C277.2 190.4 279 190.534 280.8 190.6C307.9 193.2 335.8 166.9 342.1 160.6ZM251.5 77.4002C252.167 81.8002 252.467 86.2336 252.4 90.7003V162.1C252.4 166.2 251.3 169.5 246.6 169.5H223.5C219.2 169.5 218 166.1 218 162.4V158.6C212.3 162.8 206.1 166.3 199.5 169C192.1 171.3 184.4 172.4 176.6 172.2C170.8 172.3 165 171.6 159.5 170.1C154.5 168.6 149.9 166.2 145.9 163C142.1 160.1 139.1 156.4 136.9 152.1C134.7 147.2 133.6 141.8 133.7 136.4C133.3 122.2 140.5 109 152.6 101.6C164.6 94.7002 186 92.4002 205.9 93.1002C214.3 93.1002 216.4 88.7002 216.4 81.9002C216.2 77.0002 214.1 72.3002 210.4 68.9002C205.7 65.8002 200 64.4002 194.4 65.0002C188.3 64.5002 182.2 66.1002 177.1 69.4002C175 71.0002 173.3 73.2002 172.4 75.8002C170.4 80.5002 170.4 82.2003 164.9 82.2003H144.9C144.633 82.1336 144.367 82.0669 144.1 82.0002C141.1 81.3002 139.4 78.3002 140.1 75.4002C144.633 54.9336 163.133 44.7003 195.6 44.7003C200.467 44.7003 204.867 44.9002 208.8 45.3002C212.467 45.5669 216.1 46.1002 219.7 46.9002C222.833 47.5669 225.9 48.4669 228.9 49.6003C231.833 50.8669 234.633 52.4003 237.3 54.2003C239.8 55.7003 242 57.6003 244 59.7003C245.9 61.9003 247.5 64.5003 248.7 67.2003C250 70.5003 251 73.9002 251.5 77.4002ZM217.2 123.4C217.2 122.867 217.167 122.367 217.1 121.9C216.3 116.5 211.3 112.8 205.9 113.6C196.7 113.3 187.5 114.8 178.9 118.1C173 120.9 169.4 127 169.9 133.5C169.5 138.3 171.5 143 175.3 145.9C179.6 148.7 184.6 150.1 189.7 149.9C211 149.9 217 137.4 217 137.4L217.2 123.4Z" fill="#333333"/>
<path d="M746.9 91.4006C752.3 100.201 752.3 111.301 746.9 120.201C741.4 128.401 711.7 160.201 701.9 170.401C693.4 179.201 681.9 188.101 670.5 188.101H434.5C402.5 188.101 400.6 177.201 400.6 152.901V53.7006C400.6 28.8006 408 21.6006 429.8 21.6006H671C682.3 21.6006 692.4 27.4006 703.7 39.0006C713.7 49.0006 742.9 85.5006 746.9 91.4006Z" fill="#33CCCC"/>
<path d="M454.2 59.9V59.3C454.2 56.1 454.2 53 448.7 53H429C424.3 53 424.1 55.5 424.1 59.4V85.6C431.9 74.7 442.2 65.9 454.2 59.9Z" fill="white"/>
<path d="M586.7 154.6V153.1V90.0004C586.7 63.6004 575.033 50.4004 551.7 50.4004C545.2 50.4004 538.9 52.3004 533.4 55.8004C527.4 59.6004 522 64.3004 517.4 69.8004C515.4 63.9004 511.4 58.8004 506.1 55.4004C500.1 52.1004 493.3 50.5004 486.4 50.8004C476.3 50.8004 466.5 54.2004 458.6 60.4004C456.8 62.1004 424.1 87.7004 424.1 114.3V154.7C424.1 155.9 423.4 160.8 428.9 160.8H449.5C455.8 160.8 455.2 156.6 455.2 154.9V89.5004C458.7 84.8004 465.7 73.8004 477.3 73.8004C481.1 73.4004 484.8 75.1004 486.9 78.3004C489.2 82.9004 490.3 88.1004 489.9 93.3004V144.3V154.8C489.9 156 489.2 160.9 494.7 160.9H515C521.4 160.9 520.8 156.7 520.8 155V153.6V89.2004C524.5 84.6004 531.7 73.5004 542.9 73.5004C546.7 73.2004 550.4 74.9004 552.7 78.1004C555 82.7004 556.1 87.9004 555.7 93.1004V144.1V154.6C555.7 155.8 555 160.7 560.5 160.7H581.1C587.5 160.4 586.7 156.2 586.7 154.6Z" fill="white"/>
<path fill-rule="evenodd" clip-rule="evenodd" d="M700 129.1C700 129.033 700 129 700 129C700.067 128.933 700.1 128.9 700.1 128.9L700 129.1ZM653.5 159.4C622.1 159.4 601.1 138.1 601.1 106C601.1 74 622.9 51.5 652.4 51.5C681.8 51.5 701.5 71.9 702.7 104.8C702.7 109 701.7 112.7 696.4 112.7H629.8C630.2 130.3 638.6 139.9 653.7 139.9C661.9 140.1 669.4 135.6 673 128.3C674.4 126.2 676.8 125 679.3 125H696.4C698.3 125 699.9 126.4 700 128.3C700 128.5 700 128.7 700 128.9C692.8 148.2 674 160.5 653.5 159.4ZM652.5 71.8C640 71.8 631.6 80.5 629.7 94.8H674.4C673.3 82.3 666.5 71.8 652.5 71.8Z" fill="white"/>
</svg>
