<svg width="317" height="296" viewBox="0 0 317 296" fill="none" xmlns="http://www.w3.org/2000/svg">
<path d="M304.749 147.55C304.749 66.15 238.749 0.0500488 157.349 0.0500488C75.8491 0.0500488 9.84911 66.15 9.84911 147.55C9.84911 228.95 75.8491 295.05 157.349 295.05C238.749 295.05 304.749 228.95 304.749 147.55Z" fill="#A6FC6F"/>
<path fill-rule="evenodd" clip-rule="evenodd" d="M157.349 295.05C75.9491 295.05 9.84911 228.85 9.84911 147.55C9.84911 66.25 75.9491 0.0500488 157.349 0.0500488C238.649 0.0500488 304.749 66.25 304.749 147.55C304.749 228.85 238.649 295.05 157.349 295.05ZM157.349 14.45C83.9491 14.45 24.1491 74.15 24.1491 147.55C24.1491 220.95 83.9491 280.65 157.349 280.65C230.749 280.65 290.449 220.95 290.449 147.55C290.449 74.15 230.749 14.45 157.349 14.45Z" fill="#A6FC6F"/>
<path fill-rule="evenodd" clip-rule="evenodd" d="M144.199 0L67.8488 76.35C54.5488 89.65 47.9488 96.25 45.4488 103.95C43.2488 110.65 43.2488 117.95 45.4488 124.65C47.9488 132.35 54.5488 138.95 67.8488 152.25L108.649 193.05L108.649 193.05C121.949 206.35 128.549 212.95 136.249 215.45C142.949 217.65 150.249 217.65 156.949 215.45C164.549 212.95 171.249 206.35 184.549 193.05L292.849 84.75L292.849 84.7499C306.149 71.45 312.749 64.85 315.249 57.15C317.449 50.45 317.449 43.15 315.249 36.45C312.749 28.75 306.149 22.15 292.849 8.84998L283.999 0H144.199Z" fill="#7000FF"/>
<path fill-rule="evenodd" clip-rule="evenodd" d="M249.676 147.776L248.95 147.05L208.15 106.25L208.15 106.25C194.85 92.9499 188.25 86.3499 180.65 83.85C173.85 81.65 166.65 81.65 159.85 83.85C152.25 86.35 145.55 92.95 132.35 106.25L24.0502 214.55L23.3247 215.275C10.5058 228.093 4.00619 234.591 1.65023 242.15C-0.549771 248.85 -0.549771 256.15 1.65023 262.85C4.00621 270.409 10.5059 276.908 23.3251 289.725L24.0502 290.45L28.6002 295H176.9L248.95 222.95L249.676 222.225C262.495 209.407 268.994 202.909 271.35 195.35C273.55 188.65 273.55 181.35 271.35 174.65C268.994 167.091 262.495 160.593 249.676 147.776Z" fill="#7000FF"/>
<path d="M199.049 102.15C203.549 103.15 207.849 103.95 212.049 105.05C216.549 106.25 220.949 107.55 225.449 108.85C226.049 109.05 226.249 109.25 226.249 109.95C226.249 123.85 226.449 137.75 226.249 151.65C226.049 166.55 221.349 180.05 212.249 191.85C202.149 205.15 188.949 213.65 172.749 217.55C166.349 219.05 159.849 219.55 153.349 219.15C137.749 218.25 123.949 212.75 112.249 202.55C100.049 192.15 92.4493 178.95 89.3493 163.25C88.4493 158.75 88.1493 154.15 88.1493 149.65C88.0493 136.45 88.1493 123.35 88.0493 110.25C88.0493 109.35 88.3493 109.05 89.1493 108.75C97.6493 106.05 106.249 103.95 115.049 102.35C115.049 102.35 115.149 102.35 115.349 102.35C115.349 102.683 115.349 103.017 115.349 103.35C115.349 119.85 115.349 136.35 115.449 152.85C115.449 161.15 116.649 169.35 119.449 177.25C121.649 183.45 124.949 189.05 129.949 193.55C134.549 197.85 140.049 200.45 146.149 201.75C154.749 203.65 163.349 203.45 171.849 200.85C181.749 197.65 188.749 191.05 193.149 181.65C195.549 176.65 196.949 171.45 197.849 165.95C198.849 159.95 199.149 153.75 199.149 147.65C199.149 132.983 199.149 118.283 199.149 103.55C199.049 103.15 199.049 102.75 199.049 102.15Z" fill="white"/>
<path d="M169.349 132.75C161.149 132.75 153.149 132.75 145.049 132.75C145.049 113.817 145.049 94.8833 145.049 75.9499C147.549 75.1499 164.549 75.0499 169.349 75.8499C169.349 94.8499 169.349 113.817 169.349 132.75Z" fill="white"/>
</svg>
